HIERARCHY
ROOT hips
{
  OFFSET 0 10.6860622 2.3727825e-15
  CHANNELS 6 Xposition Yposition Zposition Yrotation Xrotation Zrotation
  JOINT leftUpperLeg
  {
    OFFSET 0.6642549969 -0.9402397400000004 0
    CHANNELS 3 Yrotation Xrotation Zrotation
    JOINT leftLowerLeg
    {
      OFFSET 0 -3.997221335632195 0
      CHANNELS 3 Yrotation Xrotation Zrotation
      JOINT leftFoot
      {
        OFFSET -0.13777839790000004 -4.6145792000000005 -0.22186036399999998
        CHANNELS 3 Yrotation Xrotation Zrotation
        JOINT leftToes
        {
          OFFSET -0.03777410834999995 -0.9130806927000008 0.85230013
          CHANNELS 3 Yrotation Xrotation Zrotation
          End Site
          {
            OFFSET -0.03777410834999995 -0.9130806927000008 0.85230013
          }
        }
      }
    }
  }
  JOINT rightUpperLeg
  {
    OFFSET -0.6642778626 -0.9402397400000004 0
    CHANNELS 3 Yrotation Xrotation Zrotation
    JOINT rightLowerLeg
    {
      OFFSET 0 -3.997221452859387 0
      CHANNELS 3 Yrotation Xrotation Zrotation
      JOINT rightFoot
      {
        OFFSET 0.1377926176 -4.6145792000000005 -0.22185782299999995
        CHANNELS 3 Yrotation Xrotation Zrotation
        JOINT rightToes
        {
          OFFSET 0.037780746850000047 -0.9130806927000008 0.85230167
          CHANNELS 3 Yrotation Xrotation Zrotation
          End Site
          {
            OFFSET 0.037780746850000047 -0.9130806927000008 0.85230167
          }
        }
      }
    }
  }
  JOINT spine
  {
    OFFSET 0 0.13988381660000015 0
    CHANNELS 3 Yrotation Xrotation Zrotation
    JOINT chest
    {
      OFFSET 0 0.6191039003973773 0
      CHANNELS 3 Yrotation Xrotation Zrotation
      JOINT upperChest
      {
        OFFSET 0 0.9855186130586943 0
        CHANNELS 3 Yrotation Xrotation Zrotation
        JOINT leftShoulder
        {
          OFFSET 0.1807663869 1.5087829790000005 0
          CHANNELS 3 Yrotation Xrotation Zrotation
          JOINT leftUpperArm
          {
            OFFSET 0.5985063006419806 0 0
            CHANNELS 3 Yrotation Xrotation Zrotation
            JOINT leftLowerArm
            {
              OFFSET 2.2993332369501065 0 0
              CHANNELS 3 Yrotation Xrotation Zrotation
              JOINT leftHand
              {
                OFFSET 2.395047042602395 0 0
                CHANNELS 3 Yrotation Xrotation Zrotation
                JOINT leftIndexProximal
                {
                  OFFSET 0.5766295810000004 0.04556643899499946 0.17265095988184
                  CHANNELS 3 Yrotation Xrotation Zrotation
                  JOINT leftIndexIntermediate
                  {
                    OFFSET 0.2957229000000008 -0.019352197700001517 -0.007932640616999987
                    CHANNELS 3 Yrotation Xrotation Zrotation
                    JOINT leftIndexDistal
                    {
                      OFFSET 0.19008243099999922 -0.012484908149998475 -0.002786250786000012
                      CHANNELS 3 Yrotation Xrotation Zrotation
                      End Site
                      {
                        OFFSET 0.19008243099999922 -0.012484908149998475 -0.002786250786000012
                      }
                    }
                  }
                }
                JOINT leftMiddleProximal
                {
                  OFFSET 0.5834975091000001 0.0524350405149987 0.02204081888183999
                  CHANNELS 3 Yrotation Xrotation Zrotation
                  JOINT leftMiddleIntermediate
                  {
                    OFFSET 0.33880573540000003 -0.019871473270000717 -0.00000971183179999946
                    CHANNELS 3 Yrotation Xrotation Zrotation
                    JOINT leftMiddleDistal
                    {
                      OFFSET 0.20676022730000088 -0.012221336379999448 0.0001471936708000235
                      CHANNELS 3 Yrotation Xrotation Zrotation
                      End Site
                      {
                        OFFSET 0.20676022730000088 -0.012221336379999448 0.0001471936708000235
                      }
                    }
                  }
                }
                JOINT leftLittleProximal
                {
                  OFFSET 0.5344154683999995 -0.012880921405001189 -0.24414037221816004
                  CHANNELS 3 Yrotation Xrotation Zrotation
                  JOINT leftLittleIntermediate
                  {
                    OFFSET 0.21758961730000093 -0.011650919939999227 0.011893592810000034
                    CHANNELS 3 Yrotation Xrotation Zrotation
                    JOINT leftLittleDistal
                    {
                      OFFSET 0.1475273964999999 -0.008152365682999818 0.006001092492999946
                      CHANNELS 3 Yrotation Xrotation Zrotation
                      End Site
                      {
                        OFFSET 0.1475273964999999 -0.008152365682999818 0.006001092492999946
                      }
                    }
                  }
                }
                JOINT leftRingProximal
                {
                  OFFSET 0.5799399463000003 0.026911854694997794 -0.12150566991816003
                  CHANNELS 3 Yrotation Xrotation Zrotation
                  JOINT leftRingIntermediate
                  {
                    OFFSET 0.26167887460000006 -0.013480186499999602 0.010996293000000053
                    CHANNELS 3 Yrotation Xrotation Zrotation
                    JOINT leftRingDistal
                    {
                      OFFSET 0.17667108799999987 -0.008990287899999228 0.0055541023999999065
                      CHANNELS 3 Yrotation Xrotation Zrotation
                      End Site
                      {
                        OFFSET 0.17667108799999987 -0.008990287899999228 0.0055541023999999065
                      }
                    }
                  }
                }
                JOINT leftThumbProximal
                {
                  OFFSET 0.11018806699999972 -0.09448718900500053 0.17047963138184
                  CHANNELS 3 Yrotation Xrotation Zrotation
                  JOINT leftThumbIntermediate
                  {
                    OFFSET 0.31062601459999983 -0.08126270900000132 0.15443142000000007
                    CHANNELS 3 Yrotation Xrotation Zrotation
                    JOINT leftThumbDistal
                    {
                      OFFSET 0.21627175790000086 -0.08833193599999878 0.018771167799999988
                      CHANNELS 3 Yrotation Xrotation Zrotation
                      End Site
                      {
                        OFFSET 0.21627175790000086 -0.08833193599999878 0.018771167799999988
                      }
                    }
                  }
                }
              }
            }
          }
        }
        JOINT neck
        {
          OFFSET 0 1.5463305265074576 0
          CHANNELS 3 Yrotation Xrotation Zrotation
          JOINT head
          {
            OFFSET 0 0.8456443600000344 0
            CHANNELS 3 Yrotation Xrotation Zrotation
            JOINT leftEye
            {
              OFFSET 0.30408573140000006 0.5104519199999995 0.1276382305
              CHANNELS 3 Yrotation Xrotation Zrotation
              End Site
              {
                OFFSET 0.30408573140000006 0.5104519199999995 0.1276382305
              }
            }
            JOINT rightEye
            {
              OFFSET -0.30409491089999996 0.5104519199999995 0.1276379445
              CHANNELS 3 Yrotation Xrotation Zrotation
              End Site
              {
                OFFSET -0.30409491089999996 0.5104519199999995 0.1276379445
              }
            }
            JOINT jaw
            {
              OFFSET -3.155239131000001e-7 -0.11984121820000082 0.60178107
              CHANNELS 3 Yrotation Xrotation Zrotation
              End Site
              {
                OFFSET -3.155239131000001e-7 -0.11984121820000082 0.60178107
              }
            }
          }
        }
        JOINT rightShoulder
        {
          OFFSET -0.1807303465 1.5087829790000005 0
          CHANNELS 3 Yrotation Xrotation Zrotation
          JOINT rightUpperArm
          {
            OFFSET -0.5985063796536958 0 0
            CHANNELS 3 Yrotation Xrotation Zrotation
            JOINT rightLowerArm
            {
              OFFSET -2.2993322059002854 0 0
              CHANNELS 3 Yrotation Xrotation Zrotation
              JOINT rightHand
              {
                OFFSET -2.395045314457259 0 0
                CHANNELS 3 Yrotation Xrotation Zrotation
                JOINT rightIndexProximal
                {
                  OFFSET -0.5764487688300002 0.0441371204405987 0.17361932004999997
                  CHANNELS 3 Yrotation Xrotation Zrotation
                  JOINT rightIndexIntermediate
                  {
                    OFFSET -0.29573011380000047 -0.01934826376999843 -0.007698921482999974
                    CHANNELS 3 Yrotation Xrotation Zrotation
                    JOINT rightIndexDistal
                    {
                      OFFSET -0.19008373999999884 -0.012503266380000655 -0.0026365778999999897
                      CHANNELS 3 Yrotation Xrotation Zrotation
                      End Site
                      {
                        OFFSET -0.19008373999999884 -0.012503266380000655 -0.0026365778999999897
                      }
                    }
                  }
                }
                JOINT rightMiddleProximal
                {
                  OFFSET -0.5834852037300005 0.05211639405060153 0.02307162440000001
                  CHANNELS 3 Yrotation Xrotation Zrotation
                  JOINT rightMiddleIntermediate
                  {
                    OFFSET -0.33880114510000003 -0.019952774050000954 0.0002455003561999819
                    CHANNELS 3 Yrotation Xrotation Zrotation
                    JOINT rightMiddleDistal
                    {
                      OFFSET -0.20675694929999955 -0.012273788999999091 0.00030209124000002766
                      CHANNELS 3 Yrotation Xrotation Zrotation
                      End Site
                      {
                        OFFSET -0.20675694929999955 -0.012273788999999091 0.00030209124000002766
                      }
                    }
                  }
                }
                JOINT rightLittleProximal
                {
                  OFFSET -0.5346811737299992 -0.011214256288399227 -0.24363941305000003
                  CHANNELS 3 Yrotation Xrotation Zrotation
                  JOINT rightLittleIntermediate
                  {
                    OFFSET -0.21757715980000092 -0.011771559690000988 0.01201554387
                    CHANNELS 3 Yrotation Xrotation Zrotation
                    JOINT rightLittleDistal
                    {
                      OFFSET -0.1475201849000004 -0.00822055339600003 0.006082065407000015
                      CHANNELS 3 Yrotation Xrotation Zrotation
                      End Site
                      {
                        OFFSET -0.1475201849000004 -0.00822055339600003 0.006082065407000015
                      }
                    }
                  }
                }
                JOINT rightRingProximal
                {
                  OFFSET -0.5800810755299999 0.027657985680600072 -0.12066365025000003
                  CHANNELS 3 Yrotation Xrotation Zrotation
                  JOINT rightRingIntermediate
                  {
                    OFFSET -0.26166445029999974 -0.013623118409999302 0.011164098990000045
                    CHANNELS 3 Yrotation Xrotation Zrotation
                    JOINT rightRingDistal
                    {
                      OFFSET -0.17666387530000027 -0.009072900100000503 0.005668185599999959
                      CHANNELS 3 Yrotation Xrotation Zrotation
                      End Site
                      {
                        OFFSET -0.17666387530000027 -0.009072900100000503 0.005668185599999959
                      }
                    }
                  }
                }
                JOINT rightThumbProximal
                {
                  OFFSET -0.10997596379000074 -0.09577489355940072 0.16989765924999997
                  CHANNELS 3 Yrotation Xrotation Zrotation
                  JOINT rightThumbIntermediate
                  {
                    OFFSET -0.31036620999999986 -0.08229339117999834 0.15440884469999996
                    CHANNELS 3 Yrotation Xrotation Zrotation
                    JOINT rightThumbDistal
                    {
                      OFFSET -0.21631306399999906 -0.08825326400000111 0.018656797720000014
                      CHANNELS 3 Yrotation Xrotation Zrotation
                      End Site
                      {
                        OFFSET -0.21631306399999906 -0.08825326400000111 0.018656797720000014
                      }
                    }
                  }
                }
              }
            }
          }
        }
      }
    }
  }
}
MOTION
Frames: 10
Frame Time: 0.03333333333333333
0 11.682712981546562 0 0 0 0 0 0 -5.826343164929014 -0.3712483961610101 -3.6333298826370974 5.838118207697276 0 0 0 0 0 0 0 0 5.826343164929014 0.3712483961610101 -3.6333298826370974 -5.838118207697276 0 0 0 0 0 0 0 -4.610651315171937 0 0 3.0831277533083026 0 0 0 0 0 1.5275236235667615 0 0 0 0 0 0 0 0 0 0 0 0 0 0 0 0 0 0 0 0 0 0 0 0 0 0 0 0 0 0 0 0 0 0 0 0 0 0 0 0 0 0 0 0 0 0 0 0 0 0 0 0 0 0 0 0 1.5275236235667615 0 0 0 0 0 0 0 0 0 0 0 0 0 0 1.5275236235667615 0 0 0 0 0 0 0 0 0 0 0 0 0 0 0 0 0 0 0 0 0 0 0 0 0 0 0 0 0 0 0 0 0 0 0 0 0 0 0 0 0 0 0 0 0 0 0 0 0 0 0 0 0 0 0
0 -10.07322438200052 6.440577127459367 180 -43.99996901092107 180 139.54037458659215 -73.36260331119344 -124.37685757943565 2.1885954974066695 24.823510502844254 8.945449358799912 -10.803261566867656 2.708093057359426 5.556241331336435 0 0 0 -154.06436015637058 -81.06066038781154 148.20027641590218 -5.275536113497444 45.26227674952086 -6.443675592310644 1.836581823184743 13.251165819710756 -6.358807611039197 0 0 0 -0.12165563793709112 46.23752546112983 0.177950017450297 2.144382587727869 15.17965768812406 2.747101036651413 0 0 0 -42.82586414366563 -4.91308706305346 -7.408877786443889 0.5115096421805241 4.29957988663512 -52.03307968315083 -92.28440553517935 -46.98198599334905 44.48995363118361 -18.784680545563674 9.097673886592219 -53.17256016848796 0 0 0 0 0 0 0 0 0 0 0 0 0 0 0 0 0 0 0 0 0 0 0 0 0 0 0 0 0 0 0 0 0 0 0 0 0 0 0 0 0 0 0 0 0 0 19.52587217553456 0 0 8.99856659418915 0 0 0 0 0 0 0 0 0 0 42.82227456825316 -4.911527894962933 7.405727549543361 -0.5147980102803275 4.301094048158787 52.0290869865838 92.27915082467352 -46.98122511798156 -44.49039626095401 18.781207356572605 9.099889128688698 53.16850484750144 0 0 0 0 0 0 0 0 0 0 0 0 0 0 0 0 0 0 0 0 0 0 0 0 0 0 0 0 0 0 0 0 0 0 0 0 0 0 0 0 0 0 0 0 0
0 -10.07322438200052 6.440577127459367 180 -43.99996901092107 180 139.4372762337465 -73.38266570272222 -124.44823826717801 2.1885954974066695 24.823510502844254 8.945449358799912 -10.803261566867656 2.708093057359426 5.556241331336435 0 0 0 -154.14400508027967 -81.03060098967482 148.3744763457054 -5.2273405346730755 45.014799049141786 -6.411504103049644 1.836581823184743 13.251165819710756 -6.358807611039197 0 0 0 -0.12165563793709112 46.23752546112983 0.177950017450297 2.140742557708194 14.81940668070816 2.7331906644486725 0 0 0 -42.848452383510065 -4.816045929570761 -7.771436458094516 0.5319876753697208 4.302182259967404 -51.822948183823314 -92.2502770088044 -47.00439161979216 44.59471946504139 -18.572566073628856 9.03746293366414 -53.30300861287403 0 0 0 0 0 0 0 0 0 0 0 0 0 0 0 0 0 0 0 0 0 0 0 0 0 0 0 0 0 0 0 0 0 0 0 0 0 0 0 0 0 0 0 0 0 0 19.52587217553456 0 -0.23104605513449644 8.856475406971933 -0.0017503445475141393 0 0 0 0 0 0 0 0 0 42.835257548069826 -4.804509233236725 7.777204043051549 -0.535600938656675 4.304466568019426 51.81759550692757 92.24279820803399 -47.00500759427424 -44.595780717626425 18.6949642870942 9.128637506811438 53.500150108707345 0 0 0 0 0 0 0 0 0 0 0 0 0 0 0 0 0 0 0 0 0 0 0 0 0 0 0 0 0 0 0 0 0 0 0 0 0 0 0 0 0 0 0 0 0
0 -10.07322438200052 6.440577127459367 180 -43.99996901092107 180 139.33414442328424 -73.40277557230532 -124.51957999805076 2.1885954974066695 24.823510502844254 8.945449358799912 -10.803261566867656 2.708093057359426 5.556241331336435 0 0 0 -154.22280097801408 -81.00051018242085 148.54783311800952 -5.179547566983756 44.76730875802369 -6.379763867438341 1.836581823184743 13.251165819710756 -6.358807611039197 0 0 0 -0.12165563793709112 46.23752546112983 0.177950017450297 2.1371989759694587 14.459155299684284 2.7193268009033145 0 0 0 -42.8716552154535 -4.719148428633572 -8.133981295127759 0.552475157459529 4.304710153746458 -51.612813667286574 -92.21619410041119 -47.02684171745075 44.69950780997859 -18.360351156908283 8.977729663186134 -53.433659727545766 0 0 0 0 0 0 0 0 0 0 0 0 0 0 0 0 0 0 0 0 0 0 0 0 0 0 0 0 0 0 0 0 0 0 0 0 0 0 0 0 0 0 0 0 0 0 19.52587217553456 0 -0.46199915880470643 8.714378643619002 -0.002920329424077801 0 0 0 0 0 0 0 0 0 42.84893417214412 -4.697576330602333 8.148648174254756 -0.5564162492959408 4.307762045500325 51.606102212556806 92.20649364044456 -47.02883573452692 -44.70119002980451 18.60888431272633 9.157877677585024 53.83177445382872 0 0 0 0 0 0 0 0 0 0 0 0 0 0 0 0 0 0 0 0 0 0 0 0 0 0 0 0 0 0 0 0 0 0 0 0 0 0 0 0 0 0 0 0 0
0 -10.07322438200052 6.440577127459367 180 -43.99996901092107 180 139.12775194379543 -73.44309049177937 -124.66215623147427 2.188595118710733 24.82350862146773 8.945448773714308 -10.803261566867656 2.708093057359426 5.556241331336435 0 0 0 -154.37789939455652 -80.94021386155846 148.89206839511112 -5.085113422152973 44.27210581886779 -6.3175330624749115 1.836581823184743 13.251164942583236 -6.358808046904834 0 0 0 -0.12165562745343303 46.23752052366994 0.17795005997606936 2.1303936033158317 13.73819211413276 2.6917166976524016 0 0 0 -42.9199170416444 -4.5256669275469 -8.859544179629532 0.5934887385876757 4.30953907494057 -51.19243906977682 -92.14813394428306 -47.07186553649744 44.90914582867384 -17.935457606566313 8.859648307484846 -53.69567278660391 0 0 0 0 0 0 0 0 0 0 0 0 0 0 0 0 0 0 0 0 0 0 0 0 0 0 0 0 0 0 0 0 0 0 0 0 0 0 0 0 0 0 0 0 0 0 19.525870363795356 0 -0.9242276133608281 8.429808461108008 -0.0035203288999425464 0 0 0 0 0 0 0 0 0 42.878392051911376 -4.483829132329082 8.89199219263095 -0.5980931458616492 4.314124866083015 51.18301064035513 92.13402354735238 -47.07662926837772 -44.91211095682912 18.437124940530097 9.217867648012831 54.49540398173831 0 0 0 0 0 0 0 0 0 0 0 0 0 0 0 0 0 0 0 0 0 0 0 0 0 0 0 0 0 0 0 0 0 0 0 0 0 0 0 0 0 0 0 0 0
0 -10.07322438200052 6.440577127459367 180 -43.99996901092107 180 139.02448288615497 -73.46330777057577 -124.7333794171311 2.188595353711241 24.82350862146773 8.945449358799912 -10.803262406447137 2.708093057359426 5.5562417566926205 0 0 0 -154.45423290689675 -80.9100090859754 149.06298022389944 -5.038462287729312 44.02441912099341 -6.2870307288568466 1.836581823184743 13.251164942583236 -6.358808046904834 0 0 0 -0.12165563793709112 46.23752546112983 0.17795002140235064 2.127130039006017 13.377508597346 2.6779674785498004 0 0 0 -42.94497830394468 -4.42909898883976 -9.22253722918263 0.614011193364752 4.311842669515186 -50.98221749305621 -92.11417229645882 -47.094444385641836 45.014018136740276 -17.722791617264942 8.801314336144445 -53.82701838651507 0 0 0 0 0 0 0 0 0 0 0 0 0 0 0 0 0 0 0 0 0 0 0 0 0 0 0 0 0 0 0 0 0 0 0 0 0 0 0 0 0 0 0 0 0 0 19.52587217553456 0 -1.1554987536442047 8.287352551308656 -0.0029492900261127966 0 0 0 0 0 0 0 0 0 42.89416564210356 -4.377034608197559 9.26386469808482 -0.6189524974001408 4.317191779193111 50.97142436677836 92.09783420729404 -47.100594793410544 -45.017602740401955 18.35145364395063 9.248615989788492 54.827368474629864 0 0 0 0 0 0 0 0 0 0 0 0 0 0 0 0 0 0 0 0 0 0 0 0 0 0 0 0 0 0 0 0 0 0 0 0 0 0 0 0 0 0 0 0 0
0 -10.07322438200052 6.440577127459367 180 -43.99996901092107 180 138.92117746894576 -73.4835731302648 -124.80456045340668 2.1885954974066695 24.823510502844254 8.945449358799912 -10.803263246026615 2.708093057359426 5.5562421820488055 0 0 0 -154.52974467903255 -80.87975268792661 149.2330743086737 -4.992186316646684 43.77671299532558 -6.256933897695688 1.836581823184743 13.251165819710756 -6.358808918636105 0 0 0 -0.12165563793709112 46.23752546112983 0.177950017450297 2.1239599692747513 13.016823588936116 2.6642598473853196 0 0 0 -42.9706515358446 -4.33269135326062 -9.585526596711771 0.6345420642144366 4.314071353610785 -50.77199684248362 -92.08025699200374 -47.11706292304288 45.1189121281272 -17.510023546739266 8.743462927707759 -53.95856298738794 0 0 0 0 0 0 0 0 0 0 0 0 0 0 0 0 0 0 0 0 0 0 0 0 0 0 0 0 0 0 0 0 0 0 0 0 0 0 0 0 0 0 0 0 0 0 19.525873987273783 0 -1.3866883949380726 8.144899053104506 -0.0017975861331988227 0 0 0 0 0 0 0 0 0 42.91063458926546 -4.270344785906092 9.635713573998853 -0.6398231822781181 4.320181646114831 50.75983943821611 92.06169376623657 -47.12460122607641 -45.12311694399443 18.265955688978444 9.279854067300755 55.159316197133386 0 0 0 0 0 0 0 0 0 0 0 0 0 0 0 0 0 0 0 0 0 0 0 0 0 0 0 0 0 0 0 0 0 0 0 0 0 0 0 0 0 0 0 0 0
0 -10.07322438200052 6.440577127459367 180 -43.99996901092107 180 138.71448919968623 -73.5241765436968 -124.94685187498307 2.1885954974066695 24.823510502844254 8.945449358799912 -10.803262406447137 2.708093057359426 5.556241331336435 0 0 0 -154.67822119015023 -80.81919403790634 149.57073658602386 -4.9007175475469085 43.28113124823796 -6.19792104919527 1.836581823184743 13.251166696838279 -6.358808918636105 0 0 0 -0.12165564842075101 46.23753039859016 0.17795001349824266 2.1178978270916677 12.295110763091097 2.6369524720058393 0 0 0 -43.02385613068054 -4.140273906172645 -10.31188121304402 0.6756347856619149 4.318301847252105 -50.351472786459766 -92.01256350359023 -47.16242932497847 45.32879629575304 -17.084066646544812 8.629175578805754 -54.22230091925633 0 0 0 0 0 0 0 0 0 0 0 0 0 0 0 0 0 0 0 0 0 0 0 0 0 0 0 0 0 0 0 0 0 0 0 0 0 0 0 0 0 0 0 0 0 0 19.525873987273783 0 -1.8493849898869792 7.859669112718649 0.0022508762297699775 0 0 0 0 0 0 0 0 0 42.945662945750286 -4.05717616658958 10.379765265586654 -0.6816042959108546 4.325933234549698 50.33658742705527 91.98957305345502 -47.17276719549429 -45.334254599029656 18.095419458276147 9.343820758488539 55.823480103713685 0 0 0 0 0 0 0 0 0 0 0 0 0 0 0 0 0 0 0 0 0 0 0 0 0 0 0 0 0 0 0 0 0 0 0 0 0 0 0 0 0 0 0 0 0
0 -10.07322438200052 6.440577127459367 180 -43.99996901092107 180 138.61106749879005 -73.54455094483137 -125.01792095337376 2.1885954974066695 24.823510502844254 8.945449358799912 -10.803262406447137 2.708093057359426 5.556241331336435 0 0 0 -154.75131555660187 -80.78882806427224 149.73843669286452 -4.855515348544823 43.033266502561375 -6.1689947896951995 1.836581823184743 13.251166696838279 -6.358808918636105 0 0 0 -0.12165564842075101 46.23753039859016 0.17795003278510535 2.115003160461302 11.934108594305572 2.623349804653595 0 0 0 -43.05138251351839 -4.044279287557984 -10.675218268796474 0.6961954533275302 4.320305367952404 -50.141187491943754 -91.97879137975106 -47.185177307073296 45.43377720833757 -16.870892039130094 8.572746864234382 -54.354499260763475 0 0 0 0 0 0 0 0 0 0 0 0 0 0 0 0 0 0 0 0 0 0 0 0 0 0 0 0 0 0 0 0 0 0 0 0 0 0 0 0 0 0 0 0 0 0 19.52587217553456 0 -2.0808872195005694 7.716904915651049 0.005149555151741175 0 0 0 0 0 0 0 0 0 42.964227004753 -3.9507188259337935 10.751938930607418 -0.7025135808077048 4.328693241913976 50.124926980298625 91.95358764971878 -47.196916827560074 -45.43986883658608 18.010386584019606 9.376547069011448 56.155654925889124 0 0 0 0 0 0 0 0 0 0 0 0 0 0 0 0 0 0 0 0 0 0 0 0 0 0 0 0 0 0 0 0 0 0 0 0 0 0 0 0 0 0 0 0 0
0 -10.07322438200052 6.440577127459367 180 -43.99996901092107 180 138.50761069133583 -73.56494990477384 -125.08894795624666 2.1885954974066695 24.823510502844254 8.945449358799912 -10.803261566867656 2.708093057359426 5.556241331336435 0 0 0 -154.8236220682899 -80.758454684199 149.90534905224348 -4.81066484443984 42.78538904337506 -6.140451461434081 1.836581823184743 13.251165819710756 -6.358807611039197 0 0 0 -0.12165563793709112 46.23752546112983 0.177950017450297 2.112200073592858 11.573106341199686 2.609783530408376 0 0 0 -43.0795160960588 -3.9484607813970563 -11.038560069019336 0.7167634933684616 4.322233547572992 -49.93089995985412 -91.94506570790816 -47.207970231062546 45.5387860911124 -16.657617169598737 8.516804790659458 -54.48688891917376 0 0 0 0 0 0 0 0 0 0 0 0 0 0 0 0 0 0 0 0 0 0 0 0 0 0 0 0 0 0 0 0 0 0 0 0 0 0 0 0 0 0 0 0 0 0 19.52587217553456 0 -2.3123191535059275 7.574153592581442 0.008629149251891512 0 0 0 0 0 0 0 0 0 42.98348587342663 -3.8443838179684717 11.124100155035832 -0.723433012057842 4.331376627731098 49.913264069874295 91.91765118201899 -47.22111265388644 -45.54550484648534 17.925541111526925 9.409759369666148 56.487815420844214 0 0 0 0 0 0 0 0 0 0 0 0 0 0 0 0 0 0 0 0 0 0 0 0 0 0 0 0 0 0 0 0 0 0 0 0 0 0 0 0 0 0 0 0 0
